<svg width="256" height="256" viewBox="0 0 256 256" fill="none" xmlns="http://www.w3.org/2000/svg">
<g filter="url(#filter0_d_27_28)">
<path d="M256 128C256 57.308 198.692 0 128 0C57.308 0 0 57.308 0 128C0 191.888 46.808 244.843 108 254.445V165H75.5V128H108V99.8C108 67.72 127.11 50 156.348 50C170.352 50 185 52.5 185 52.5V84H168.86C152.959 84 148 93.867 148 103.99V128H183.5L177.825 165H148V254.445C209.192 244.843 256 191.889 256 128Z" fill="#1877F2"/>
</g>
<defs>
<filter id="filter0_d_27_28" x="-4" y="0" width="264" height="262.445" filterUnits="userSpaceOnUse" color-interpolation-filters="sRGB">
<feFlood flood-opacity="0" result="BackgroundImageFix"/>
<feColorMatrix in="SourceAlpha" type="matrix" values="0 0 0 0 0 0 0 0 0 0 0 0 0 0 0 0 0 0 127 0" result="hardAlpha"/>
<feOffset dy="4"/>
<feGaussianBlur stdDeviation="2"/>
<feComposite in2="hardAlpha" operator="out"/>
<feColorMatrix type="matrix" values="0 0 0 0 0 0 0 0 0 0 0 0 0 0 0 0 0 0 0.25 0"/>
<feBlend mode="normal" in2="BackgroundImageFix" result="effect1_dropShadow_27_28"/>
<feBlend mode="normal" in="SourceGraphic" in2="effect1_dropShadow_27_28" result="shape"/>
</filter>
</defs>
</svg>
