<svg width="144" height="110" viewBox="0 0 144 110" fill="none" xmlns="http://www.w3.org/2000/svg">
<path d="M75.75 10.175C74.6858 9.52418 73.3632 9.16956 72 9.16956C70.6368 9.16956 69.3142 9.52418 68.25 10.175L45.75 23.925C45.1074 24.2938 44.5684 24.7574 44.1649 25.2883C43.7613 25.8193 43.5016 26.4067 43.401 27.0159C43.3004 27.625 43.361 28.2433 43.5793 28.8342C43.7975 29.425 44.169 29.9764 44.6715 30.4555C45.1741 30.9346 45.7975 31.3317 46.5048 31.6232C47.2122 31.9147 47.9889 32.0947 48.7891 32.1525C49.5892 32.2103 50.3964 32.1447 51.1627 31.9596C51.929 31.7745 52.6388 31.4737 53.25 31.075L72 19.6167L90.75 31.075C91.9963 31.7903 93.5582 32.1069 95.1048 31.9578C96.6514 31.8088 98.0613 31.2058 99.0361 30.2765C100.011 29.3472 100.474 28.1647 100.327 26.9791C100.18 25.7936 99.4355 24.6983 98.25 23.925L75.75 10.175ZM16.5 41.25C12.9196 41.25 9.4858 42.3365 6.95406 44.2705C4.42232 46.2045 3 48.8275 3 51.5625V58.4375C3 61.1726 4.42232 63.7956 6.95406 65.7296C9.4858 67.6635 12.9196 68.75 16.5 68.75C20.0804 68.75 23.5142 67.6635 26.0459 65.7296C28.5777 63.7956 30 61.1726 30 58.4375V51.5625C30 50.2083 29.6508 48.8673 28.9724 47.6161C28.2939 46.3649 27.2995 45.2281 26.0459 44.2705C24.7923 43.3129 23.3041 42.5533 21.6662 42.035C20.0283 41.5168 18.2728 41.25 16.5 41.25ZM12 51.5625C12 50.6508 12.4741 49.7765 13.318 49.1318C14.1619 48.4872 15.3065 48.125 16.5 48.125C17.6935 48.125 18.8381 48.4872 19.682 49.1318C20.5259 49.7765 21 50.6508 21 51.5625V58.4375C21 59.3492 20.5259 60.2235 19.682 60.8682C18.8381 61.5129 17.6935 61.875 16.5 61.875C15.3065 61.875 14.1619 61.5129 13.318 60.8682C12.4741 60.2235 12 59.3492 12 58.4375V51.5625ZM49.5 41.25C45.9196 41.25 42.4858 42.3365 39.9541 44.2705C37.4223 46.2045 36 48.8275 36 51.5625V58.4375C36 61.1726 37.4223 63.7956 39.9541 65.7296C42.4858 67.6635 45.9196 68.75 49.5 68.75C53.0804 68.75 56.5142 67.6635 59.0459 65.7296C61.5777 63.7956 63 61.1726 63 58.4375V51.5625C63 48.8275 61.5777 46.2045 59.0459 44.2705C56.5142 42.3365 53.0804 41.25 49.5 41.25ZM45 51.5625C45 50.6508 45.4741 49.7765 46.318 49.1318C47.1619 48.4872 48.3065 48.125 49.5 48.125C50.6935 48.125 51.8381 48.4872 52.682 49.1318C53.5259 49.7765 54 50.6508 54 51.5625V58.4375C54 59.3492 53.5259 60.2235 52.682 60.8682C51.8381 61.5129 50.6935 61.875 49.5 61.875C48.3065 61.875 47.1619 61.5129 46.318 60.8682C45.4741 60.2235 45 59.3492 45 58.4375V51.5625ZM84 51.5625C84 48.8275 85.4223 46.2045 87.9541 44.2705C90.4858 42.3365 93.9196 41.25 97.5 41.25C101.08 41.25 104.514 42.3365 107.046 44.2705C109.578 46.2045 111 48.8275 111 51.5625V58.4375C111 61.1726 109.578 63.7956 107.046 65.7296C104.514 67.6635 101.08 68.75 97.5 68.75C93.9196 68.75 90.4858 67.6635 87.9541 65.7296C85.4223 63.7956 84 61.1726 84 58.4375V51.5625ZM97.5 48.125C96.3065 48.125 95.1619 48.4872 94.318 49.1318C93.4741 49.7765 93 50.6508 93 51.5625V58.4375C93 59.3492 93.4741 60.2235 94.318 60.8682C95.1619 61.5129 96.3065 61.875 97.5 61.875C98.6935 61.875 99.8381 61.5129 100.682 60.8682C101.526 60.2235 102 59.3492 102 58.4375V51.5625C102 50.6508 101.526 49.7765 100.682 49.1318C99.8381 48.4872 98.6935 48.125 97.5 48.125ZM130.5 41.25C126.92 41.25 123.486 42.3365 120.954 44.2705C118.422 46.2045 117 48.8275 117 51.5625V58.4375C117 61.1726 118.422 63.7956 120.954 65.7296C123.486 67.6635 126.92 68.75 130.5 68.75C134.08 68.75 137.514 67.6635 140.046 65.7296C142.578 63.7956 144 61.1726 144 58.4375V51.5625C144 48.8275 142.578 46.2045 140.046 44.2705C137.514 42.3365 134.08 41.25 130.5 41.25ZM126 51.5625C126 50.6508 126.474 49.7765 127.318 49.1318C128.162 48.4872 129.307 48.125 130.5 48.125C131.693 48.125 132.838 48.4872 133.682 49.1318C134.526 49.7765 135 50.6508 135 51.5625V58.4375C135 59.3492 134.526 60.2235 133.682 60.8682C132.838 61.5129 131.693 61.875 130.5 61.875C129.307 61.875 128.162 61.5129 127.318 60.8682C126.474 60.2235 126 59.3492 126 58.4375V51.5625ZM78 49.2709C78 50.1825 77.5259 51.0569 76.682 51.7015C75.8381 52.3462 74.6935 52.7084 73.5 52.7084C72.3065 52.7084 71.1619 52.3462 70.318 51.7015C69.4741 51.0569 69 50.1825 69 49.2709C69 48.3592 69.4741 47.4848 70.318 46.8402C71.1619 46.1955 72.3065 45.8334 73.5 45.8334C74.6935 45.8334 75.8381 46.1955 76.682 46.8402C77.5259 47.4848 78 48.3592 78 49.2709ZM73.5 66.4584C74.6935 66.4584 75.8381 66.0962 76.682 65.4515C77.5259 64.8069 78 63.9325 78 63.0209C78 62.1092 77.5259 61.2348 76.682 60.5902C75.8381 59.9455 74.6935 59.5834 73.5 59.5834C72.3065 59.5834 71.1619 59.9455 70.318 60.5902C69.4741 61.2348 69 62.1092 69 63.0209C69 63.9325 69.4741 64.8069 70.318 65.4515C71.1619 66.0962 72.3065 66.4584 73.5 66.4584ZM75.78 100.953L99.78 86.0567C100.96 85.278 101.698 84.1787 101.835 82.9919C101.973 81.8051 101.5 80.624 100.517 79.699C99.5335 78.774 98.1175 78.1778 96.5688 78.0367C95.02 77.8957 93.4602 78.2209 92.22 78.9434L72 91.4925L51.78 78.9434C51.172 78.5423 50.4649 78.2386 49.7004 78.0502C48.9359 77.8618 48.1296 77.7926 47.3295 77.8467C46.5293 77.9008 45.7515 78.0771 45.0422 78.3651C44.3329 78.6531 43.7066 79.047 43.2003 79.5234C42.6939 79.9998 42.318 80.549 42.0948 81.1384C41.8715 81.7279 41.8055 82.3456 41.9006 82.9549C41.9957 83.5642 42.25 84.1527 42.6484 84.6855C43.0468 85.2183 43.5813 85.6846 44.22 86.0567L68.22 100.953C69.2889 101.615 70.6235 101.976 72 101.976C73.3765 101.976 74.7111 101.615 75.78 100.953Z" fill="#6C9DF9"/>
</svg>
