<svg width="100" height="100" viewBox="0 0 100 100" fill="none" xmlns="http://www.w3.org/2000/svg">
<path d="M51.6 10.58C51.1508 10.2058 50.5846 10.0009 50 10.0009C49.4154 10.0009 48.8492 10.2058 48.4 10.58L33.4 23.08C33.1389 23.2872 32.9218 23.5445 32.7616 23.8368C32.6014 24.1292 32.5012 24.4506 32.4671 24.7822C32.4329 25.1138 32.4654 25.4489 32.5627 25.7677C32.6599 26.0866 32.8199 26.3828 33.0334 26.6389C33.2468 26.8949 33.5092 27.1058 33.8053 27.2589C34.1014 27.4121 34.4251 27.5045 34.7575 27.5307C35.0898 27.5569 35.424 27.5163 35.7404 27.4114C36.0568 27.3066 36.3491 27.1395 36.6 26.92L50 15.755L63.4 26.92C63.9113 27.3256 64.5609 27.5153 65.2101 27.4484C65.8593 27.3815 66.4566 27.0634 66.8745 26.562C67.2923 26.0606 67.4975 25.4158 67.4462 24.7651C67.3949 24.1145 67.0912 23.5097 66.6 23.08L51.6 10.58ZM66.6 76.92L51.6 89.42C51.1508 89.7942 50.5846 89.999 50 89.999C49.4154 89.999 48.8492 89.7942 48.4 89.42L33.4 76.92C33.1389 76.7128 32.9218 76.4554 32.7616 76.1631C32.6014 75.8708 32.5012 75.5494 32.4671 75.2178C32.4329 74.8862 32.4654 74.5511 32.5627 74.2322C32.6599 73.9134 32.8199 73.6172 33.0334 73.3611C33.2468 73.105 33.5092 72.8942 33.8053 72.741C34.1014 72.5879 34.4251 72.4955 34.7575 72.4693C35.0898 72.4431 35.424 72.4836 35.7404 72.5885C36.0568 72.6934 36.3491 72.8605 36.6 73.08L50 84.245L63.4 73.08C63.9113 72.6743 64.5609 72.4847 65.2101 72.5516C65.8593 72.6184 66.4566 72.9365 66.8745 73.4379C67.2923 73.9393 67.4975 74.5842 67.4462 75.2348C67.3949 75.8855 67.0912 76.4902 66.6 76.92ZM53.75 43.75C53.75 44.7445 53.3549 45.6984 52.6516 46.4016C51.9484 47.1049 50.9946 47.5 50 47.5C49.0054 47.5 48.0516 47.1049 47.3484 46.4016C46.6451 45.6984 46.25 44.7445 46.25 43.75C46.25 42.7554 46.6451 41.8016 47.3484 41.0983C48.0516 40.3951 49.0054 40 50 40C50.9946 40 51.9484 40.3951 52.6516 41.0983C53.3549 41.8016 53.75 42.7554 53.75 43.75ZM50 60C50.9946 60 51.9484 59.6049 52.6516 58.9016C53.3549 58.1984 53.75 57.2445 53.75 56.25C53.75 55.2554 53.3549 54.3016 52.6516 53.5983C51.9484 52.8951 50.9946 52.5 50 52.5C49.0054 52.5 48.0516 52.8951 47.3484 53.5983C46.6451 54.3016 46.25 55.2554 46.25 56.25C46.25 57.2445 46.6451 58.1984 47.3484 58.9016C48.0516 59.6049 49.0054 60 50 60ZM80 47.5C80 45.5109 80.7902 43.6032 82.1967 42.1967C83.6032 40.7902 85.5109 40 87.5 40C89.4891 40 91.3968 40.7902 92.8033 42.1967C94.2098 43.6032 95 45.5109 95 47.5V52.5C95 54.4891 94.2098 56.3968 92.8033 57.8033C91.3968 59.2098 89.4891 60 87.5 60C85.5109 60 83.6032 59.2098 82.1967 57.8033C80.7902 56.3968 80 54.4891 80 52.5V47.5ZM87.5 45C86.837 45 86.2011 45.2634 85.7322 45.7322C85.2634 46.2011 85 46.8369 85 47.5V52.5C85 53.163 85.2634 53.7989 85.7322 54.2677C86.2011 54.7366 86.837 55 87.5 55C88.163 55 88.7989 54.7366 89.2678 54.2677C89.7366 53.7989 90 53.163 90 52.5V47.5C90 46.8369 89.7366 46.2011 89.2678 45.7322C88.7989 45.2634 88.163 45 87.5 45ZM32.5 40C30.5109 40 28.6032 40.7902 27.1967 42.1967C25.7902 43.6032 25 45.5109 25 47.5V52.5C25 54.4891 25.7902 56.3968 27.1967 57.8033C28.6032 59.2098 30.5109 60 32.5 60C34.4891 60 36.3968 59.2098 37.8033 57.8033C39.2098 56.3968 40 54.4891 40 52.5V47.5C40 45.5109 39.2098 43.6032 37.8033 42.1967C36.3968 40.7902 34.4891 40 32.5 40ZM30 47.5C30 46.8369 30.2634 46.2011 30.7322 45.7322C31.2011 45.2634 31.837 45 32.5 45C33.163 45 33.7989 45.2634 34.2678 45.7322C34.7366 46.2011 35 46.8369 35 47.5V52.5C35 53.163 34.7366 53.7989 34.2678 54.2677C33.7989 54.7366 33.163 55 32.5 55C31.837 55 31.2011 54.7366 30.7322 54.2677C30.2634 53.7989 30 53.163 30 52.5V47.5ZM60 47.5C60 45.5109 60.7902 43.6032 62.1967 42.1967C63.6032 40.7902 65.5109 40 67.5 40C69.4891 40 71.3968 40.7902 72.8033 42.1967C74.2098 43.6032 75 45.5109 75 47.5V52.5C75 54.4891 74.2098 56.3968 72.8033 57.8033C71.3968 59.2098 69.4891 60 67.5 60C65.5109 60 63.6032 59.2098 62.1967 57.8033C60.7902 56.3968 60 54.4891 60 52.5V47.5ZM67.5 45C66.837 45 66.2011 45.2634 65.7322 45.7322C65.2634 46.2011 65 46.8369 65 47.5V52.5C65 53.163 65.2634 53.7989 65.7322 54.2677C66.2011 54.7366 66.837 55 67.5 55C68.163 55 68.7989 54.7366 69.2678 54.2677C69.7366 53.7989 70 53.163 70 52.5V47.5C70 46.8369 69.7366 46.2011 69.2678 45.7322C68.7989 45.2634 68.163 45 67.5 45ZM12.5 40C10.5109 40 8.60322 40.7902 7.1967 42.1967C5.79018 43.6032 5 45.5109 5 47.5V52.5C5 54.4891 5.79018 56.3968 7.1967 57.8033C8.60322 59.2098 10.5109 60 12.5 60C14.4891 60 16.3968 59.2098 17.8033 57.8033C19.2098 56.3968 20 54.4891 20 52.5V47.5C20 45.5109 19.2098 43.6032 17.8033 42.1967C16.3968 40.7902 14.4891 40 12.5 40ZM10 47.5C10 46.8369 10.2634 46.2011 10.7322 45.7322C11.2011 45.2634 11.837 45 12.5 45C13.163 45 13.7989 45.2634 14.2678 45.7322C14.7366 46.2011 15 46.8369 15 47.5V52.5C15 53.163 14.7366 53.7989 14.2678 54.2677C13.7989 54.7366 13.163 55 12.5 55C11.837 55 11.2011 54.7366 10.7322 54.2677C10.2634 53.7989 10 53.163 10 52.5V47.5Z" fill="#699BF7"/>
</svg>
