<svg width="256" height="193" viewBox="0 0 256 193" fill="none" xmlns="http://www.w3.org/2000/svg">
<g clip-path="url(#clip0_27_16)">
<path d="M58.182 192.05V93.14L27.507 65.077L0 49.504V174.595C0 184.253 7.825 192.05 17.455 192.05H58.182Z" fill="#4285F4"/>
<path d="M197.818 192.05H238.545C248.204 192.05 256 184.224 256 174.595V49.505L224.844 67.342L197.818 93.14V192.05Z" fill="#34A853"/>
<path d="M58.1821 93.14L54.0081 54.493L58.1821 17.504L128 69.868L197.818 17.504L202.487 52.496L197.818 93.14L128 145.504L58.1821 93.14Z" fill="#EA4335"/>
<path d="M197.818 17.5041V93.1401L256 49.5041V26.2311C256 4.64606 231.36 -7.65894 214.11 5.28606L197.818 17.5041Z" fill="#FBBC04"/>
<path d="M0 49.5042L26.759 69.5742L58.182 93.1402V17.5041L41.89 5.28615C24.61 -7.65985 0 4.64615 0 26.2301V49.5042Z" fill="#C5221F"/>
</g>
<defs>
<clipPath id="clip0_27_16">
<rect width="256" height="193" fill="white"/>
</clipPath>
</defs>
</svg>
